<?xml version="1.0" standalone="no"?>
<!DOCTYPE svg PUBLIC "-//W3C//DTD SVG 20010904//EN"
 "http://www.w3.org/TR/2001/REC-SVG-20010904/DTD/svg10.dtd">
<svg version="1.0" xmlns="http://www.w3.org/2000/svg"
 width="256.000000pt" height="256.000000pt" viewBox="0 0 256.000000 256.000000"
 preserveAspectRatio="xMidYMid meet">

<g transform="translate(0.000000,256.000000) scale(0.100000,-0.100000)"
fill="#000000" stroke="none">
<path d="M343 2552 c-17 -11 -33 -58 -33 -98 l0 -34 -118 0 c-90 0 -123 -4
-140 -16 l-22 -15 0 -1178 c0 -1128 1 -1179 18 -1194 17 -16 92 -17 879 -17
820 0 861 1 876 18 15 17 17 72 17 583 l1 564 340 464 c187 255 346 476 354
492 8 15 15 42 15 59 0 59 -25 95 -111 161 -87 66 -147 94 -183 84 -67 -19
-80 -32 -244 -253 l-167 -226 -3 219 c-2 186 -5 222 -19 237 -14 15 -33 18
-138 18 l-123 0 -4 56 c-5 58 -23 84 -58 84 -35 0 -53 -26 -58 -84 l-4 -56
-79 0 -79 0 0 50 c0 37 -5 55 -20 70 -45 45 -90 12 -90 -68 l0 -52 -85 0 -85
0 0 53 c0 58 -19 87 -57 87 -34 0 -53 -32 -53 -88 l0 -52 -85 0 -85 0 0 53 c0
40 -5 58 -18 70 -45 41 -92 3 -92 -73 l0 -50 -79 0 -79 0 -4 56 c-6 71 -42
103 -85 76z m-33 -284 c0 -65 18 -93 60 -93 42 0 60 28 60 93 l0 42 80 0 80 0
0 -48 c0 -59 21 -92 59 -92 40 0 51 17 51 82 l0 58 85 0 85 0 0 -52 c0 -58 19
-88 56 -88 38 0 54 26 54 86 l0 54 85 0 85 0 0 -54 c0 -61 16 -86 55 -86 34 0
55 36 55 92 l0 48 80 0 80 0 0 -42 c0 -65 18 -93 60 -93 42 0 60 28 60 93 l0
42 85 0 85 0 0 -262 -1 -263 -143 -195 -142 -195 -543 -5 c-590 -5 -561 -2
-561 -62 0 -15 6 -30 13 -35 6 -4 235 -10 508 -13 l496 -5 -161 -221 -161
-221 -64 -221 -64 -222 -271 0 c-198 0 -275 -3 -284 -12 -18 -18 -14 -63 7
-82 17 -15 48 -17 317 -14 l299 3 214 140 214 140 164 224 163 223 0 -451 0
-451 -785 0 -785 0 0 1100 0 1100 85 0 85 0 0 -42z m2035 -11 c70 -52 83 -70
66 -96 -7 -11 -28 0 -100 53 -89 67 -98 76 -84 89 17 17 53 3 118 -46z m-97
-134 c45 -32 81 -62 81 -68 0 -5 -12 -25 -27 -43 l-28 -34 -84 62 c-47 35 -89
66 -94 70 -11 11 44 82 59 76 7 -2 49 -31 93 -63z m-126 -169 l89 -66 -24 -32
c-13 -17 -209 -286 -437 -598 -227 -313 -416 -568 -419 -568 -14 1 -182 132
-179 139 8 22 864 1190 872 1191 5 0 49 -30 98 -66z m-887 -1344 c0 -9 -197
-141 -203 -135 -3 2 46 182 63 233 3 9 27 -4 72 -38 38 -28 68 -55 68 -60z"/>
<path d="M337 1872 c-20 -22 -22 -63 -5 -80 17 -17 1169 -17 1186 0 18 18 14
63 -6 81 -17 15 -72 17 -589 17 -539 0 -571 -1 -586 -18z"/>
<path d="M336 1624 c-19 -18 -21 -65 -4 -82 9 -9 125 -12 458 -12 420 0 448 1
463 18 23 26 21 58 -5 76 -20 14 -80 16 -460 16 -384 0 -438 -2 -452 -16z"/>
<path d="M338 879 c-22 -13 -24 -62 -2 -83 23 -24 325 -24 348 0 25 24 24 62
-2 82 -20 15 -318 17 -344 1z"/>
<path d="M332 628 c-17 -17 -15 -64 4 -82 12 -12 38 -16 113 -16 82 0 101 3
114 18 23 25 22 69 -2 82 -28 14 -214 13 -229 -2z"/>
</g>
</svg>
